<svg xmlns="http://www.w3.org/2000/svg" viewBox="0 0 611.44 150.19"><defs><style>.cls-1{fill:#fff;}</style></defs><title>Asset 1</title><g id="Layer_2" data-name="Layer 2"><g id="logotype"><path class="cls-1" d="M32.16,108.77h-5.1v23.55c0,12.19-8.36,13.13-11,13.13s-11-.94-11-13.13V108.77H0v23.3c0,13.36,8.2,18.12,16.08,18.12s16.08-4.76,16.08-18.12Z"/><polygon class="cls-1" points="84.08 108.77 78.98 108.77 78.98 141.11 56.09 108.77 48 108.77 50.95 112.72 50.95 149.33 56.04 149.33 56.04 117.45 78.69 149.33 84.08 149.33 84.08 108.77"/><rect class="cls-1" x="105.7" y="108.77" width="5.1" height="40.56"/><path class="cls-1" d="M133.47,131.17c2.66,7.67,6.2,18.65,6.2,18.65H146s4.75-14.89,6.08-18.37,8.28-22.68,8.28-22.68h-5.78l-11.73,35-11.69-35h-5.81Z"/><polygon class="cls-1" points="190.75 130.01 192.39 125.46 179.38 125.46 179.38 113.33 195.97 113.33 197.61 108.77 174.27 108.77 174.27 149.33 196.65 149.33 198.29 144.78 179.38 144.78 179.38 130.01 190.75 130.01"/><path class="cls-1" d="M223.53,108.77H212.12v40.56h5.09V131.14h6.23l12.73,18.19h6.15L228.69,130l.47-.19c4.5-1.81,7.07-5.45,7.07-10,0-3.82-2.65-11-12.7-11m-6.32,4.56h5.52c5,0,8,2.41,8,6.3,0,4.19-3,6.77-8,6.77h-5.58Z"/><path class="cls-1" d="M264.22,107.91c-6.9,0-11.91,4.65-11.91,11s5.54,9,10.89,11.29c4.61,2,8.93,3.9,8.93,8.28,0,3.79-3.39,6.87-7.54,6.87-4.83,0-8.26-2.61-10.2-7.75l-.11-.3-4.57,2.87.1.21c3.35,6.84,7.74,9.63,15.15,9.63,6.24,0,12.7-4.57,12.7-12.21,0-7.37-6.3-10.15-11.85-12.6-4.1-1.81-8-3.52-8-6.91,0-2.09,1.37-5.64,6.5-5.64a9.5,9.5,0,0,1,8.16,4.73l.15.24,4-3.17-.14-.19a14.39,14.39,0,0,0-12.24-6.4"/><rect class="cls-1" x="294.74" y="108.77" width="5.1" height="40.56"/><polygon class="cls-1" points="344.11 108.77 313.45 108.77 313.45 113.33 326.63 113.33 326.63 149.33 331.73 149.33 331.73 113.33 342.5 113.33 344.11 108.77"/><polygon class="cls-1" points="381.31 108.54 375.29 108.54 364.89 127.24 353.92 108.54 347.9 108.54 362.34 132.13 362.34 149.09 367.44 149.09 367.44 132.13 381.31 108.54"/><polygon class="cls-1" points="17.43 17.84 17.43 34.72 46.47 34.72 40.6 50.87 17.43 50.87 17.43 82.68 0.07 82.68 0.07 1.69 58.44 1.69 52.57 17.84 17.43 17.84"/><polygon class="cls-1" points="91.95 66.61 74.56 66.61 68.82 82.68 49.89 82.68 77.6 11.88 74.86 1.69 98.09 1.69 129.57 82.68 110.89 82.68 89.71 24.81 79.98 51.67 97.41 51.67 91.95 66.61"/><polygon class="cls-1" points="140.89 82.68 140.89 1.69 158.24 1.69 158.24 66.53 189.46 66.53 183.59 82.68 140.89 82.68"/><polygon class="cls-1" points="262.53 82.68 262.53 31.95 238.78 62.64 215.03 31.95 215.03 82.68 197.67 82.68 197.67 11.71 190 1.69 214.07 1.69 238.78 33.63 263.49 1.69 279.88 1.69 279.88 82.68 262.53 82.68"/><path class="cls-1" d="M337.16,84.37c-25.91,0-43.75-21.33-43.75-42.18S311.25,0,337.16,0s43.76,21.33,43.76,42.19-17.84,42.18-43.76,42.18m0-68.1c-14.46,0-25.31,11.21-25.31,25.92S322.7,68.1,337.16,68.1s25.31-11.21,25.31-25.91-10.84-25.92-25.31-25.92"/><path class="cls-1" d="M445.38,1.68V45.42c0,19.91-12,22.06-17.39,22.06s-17.4-2.15-17.4-22.06V1.68H393.22V45c0,28.88,17.75,39.18,34.77,39.18S462.74,73.83,462.74,45V1.68Z"/><polygon class="cls-1" points="470.28 1.69 470.28 17.84 492.73 17.84 492.73 82.68 510.08 82.68 510.08 17.84 529.6 17.84 535.47 1.69 470.28 1.69"/><path class="cls-1" d="M594.08,1.68h17.36v81H594.08Zm-8.47,47.5H559.37v33.5H542v-81h17.36V33h32.16Z"/></g></g></svg>