<svg xmlns="http://www.w3.org/2000/svg" viewBox="0 0 351.82 103.2"><defs><style>.cls-1{fill:#fff;}.cls-2{fill:#0d181c;}</style></defs><title>Asset 2</title><g id="Layer_2" data-name="Layer 2"><g id="Layer_1-2" data-name="Layer 1"><path class="cls-1" d="M339.4,47.82a6.48,6.48,0,0,0-1.9-2.88,12,12,0,0,1-2.38-4.56.75.75,0,0,0-.05-.16c-1.2-4.57-4.91-8.22-7.73-10.67-5.73-4.94-13.19-8.77-23.49-12.07C289.73,13,275,12.57,262.25,16.4a26.11,26.11,0,0,0-4.31,1.67c-1.24.62-2.48,1.34-3.69,2a42.32,42.32,0,0,1-7,3.49,77.37,77.37,0,0,1-8.87,2.34,61.75,61.75,0,0,0-10.65,3,65.23,65.23,0,0,0-16,9.88,85.44,85.44,0,0,0-8.83,8.47l-.6.67h0s-14,15.23-23.55,7.94c0,0,5.43,7.66,18-.12h0a39.33,39.33,0,0,0-3.42,8,48.16,48.16,0,0,0-1.48,6.53c-1.17,7.48.11,12.78,4,16.67,1.5,1.5,3.08,2.3,4.33,2.2a2.89,2.89,0,0,0,2.12-1.35c.59-.84.28-2-.05-3.24a9.35,9.35,0,0,1-.41-2.31,9.66,9.66,0,0,1,1.33-4.86,9.57,9.57,0,0,1,15.46-.91,9,9,0,0,1,.86,9.18c-.67,1.28-.62,2.22.14,2.8,1.43,1.08,5,.72,6.41-.66,1.9-1.81,3-4.4,4.13-6.9l.39-.9c1.14-2.56,3.05-6.85,7-6.86h0a7.28,7.28,0,0,1,5.86,3.28c1.48,2.31,2,5.68,1.32,9.26a4.12,4.12,0,0,0,.19,2.91,2,2,0,0,0,1.42.69,7.3,7.3,0,0,0,5.93-2.18,24.72,24.72,0,0,0,3-5.47c.52-1.16,1.06-2.36,1.7-3.49,1.53-2.72,3.26-4.34,5.15-4.83a4.59,4.59,0,0,1,1.22-.16,5.93,5.93,0,0,1,3.1,1c3.69,2.25,6.33,7.61,4.21,11.69-.74,1.41-.69,2.43.15,3,1.53,1.09,5.07.55,6.53-1a27.43,27.43,0,0,0,4-6.09c.43-.82.88-1.66,1.35-2.48a23.67,23.67,0,0,1,2.83-3.9,20.82,20.82,0,0,1,7.74-5l1.22-.5,6.15-2.55c.62-.26,1.25-.54,1.88-.82a43.34,43.34,0,0,1,5.63-2.16c.48-.13,1-.24,1.4-.33a34.46,34.46,0,0,1,6.93-.45c1.09,0,2.22,0,3.32,0a16.51,16.51,0,0,0,7.15-2.25l.12-.07h0l.32-.22A9.77,9.77,0,0,1,332,59.72h0l.29,0c3.29.11,5.83-2.77,6.88-5.68a9.45,9.45,0,0,0,.19-6.24"/><path class="cls-2" d="M329.67,37.37a1.49,1.49,0,0,0-1.37.9l-4.81-1.49a1.74,1.74,0,1,0-3.31-1L276.64,22.28a1.54,1.54,0,1,0-2.94.25,1.53,1.53,0,0,0,.67.75l-8.13,16.17-10.7-8.52a1.54,1.54,0,0,0,.36-1.66,1.57,1.57,0,0,0-2-.89,1.54,1.54,0,0,0-.88,2,1.48,1.48,0,0,0,1,.91l-1.4,12.52-15.95-6a1.49,1.49,0,0,0,0-1,1.55,1.55,0,1,0-2.9,1.12,1.43,1.43,0,0,0,.26.41l-31.6,23.33a1.53,1.53,0,1,0,.3.47,1.18,1.18,0,0,0-.14-.22l31.66-23.37a1.53,1.53,0,0,0,1.54.27,1,1,0,0,0,.21-.14l14.81,21.41-1.29,11.5a1.55,1.55,0,1,0,1.39,1,1.49,1.49,0,0,0-.67-.75l3.08-6.14a1.54,1.54,0,0,0,1.38-2.75l7-13.87a1.63,1.63,0,0,0,1.13,0,1.59,1.59,0,0,0,.85-.82l23.92,9.07a1.59,1.59,0,0,0,0,1,1.56,1.56,0,1,0,.89-2,1.53,1.53,0,0,0-.58.41l-21.49-17.1,8.14-16.2a1.5,1.5,0,0,0,1.16,0,1.46,1.46,0,0,0,.86-.84l43.57,13.49a1.7,1.7,0,0,0,.49,1.35,1.74,1.74,0,0,0,2.46,0,1.5,1.5,0,0,0,.26-.36l4.86,1.51a1.36,1.36,0,0,0,0,.29,1.49,1.49,0,1,0,1.49-1.48m-93.49,1.16a1.58,1.58,0,0,0,.45-.55l16,6.06-1.76,15.69Zm13.88,33.15a1.32,1.32,0,0,0-.33-.08L251,60.32l1.9,2.74a1.52,1.52,0,0,0-.43,1.72,1.49,1.49,0,0,0,.67.75Zm4.46-8.89a1.53,1.53,0,0,0-1.17,0c-.1.05-.18.12-.28.18L251,60l1.78-15.89,7.95,3a1.55,1.55,0,0,0,0,1,1.57,1.57,0,0,0,.7.78Zm7.15-16.65a1.55,1.55,0,0,0-.84.79l-8-3,1.41-12.55a1.42,1.42,0,0,0,.76-.07,1.59,1.59,0,0,0,.35-.22l10.79,8.58-3.28,6.53a1.56,1.56,0,0,0-1.2,0m26.11,10.73a1.59,1.59,0,0,0-.15.21L263.7,48a1.47,1.47,0,0,0,0-1,1.5,1.5,0,0,0-.63-.73l3.27-6.51Z"/><path class="cls-1" d="M28.55,34.82c.08-1.23,1.27-6.72,2.15-10.89l2.19-9.88H42l2.76,12.12a85.57,85.57,0,0,1,1.32,8.65h.22c.17-2,.92-6.54,1.32-8.39l1.49-6.67H46.72V14.05H59.28v5.71H56.87l-6.55,25H39.92L37.28,34.29c-.39-1.49-.87-4.08-1.09-5.44H36c-.18,1.31-.75,4.08-1,5.35L32.28,44.74H22.09l-5.79-25H13.84V14.05H28.33v5.71H25.78l1.14,6.41c.48,2.11,1.23,7.33,1.41,8.65Z"/><path class="cls-1" d="M89.77,44.74H72.16V39h4.17l-.92-3h-9l-.92,3h3.42v5.75H55V39h3l5.92-19.28h-1.8V14.05H78.92L86.69,39h3.08ZM68,30.73h5.76l-2.9-9.48Z"/><polygon class="cls-1" points="115.38 13.79 115.38 25.2 108.92 25.2 108.92 19.58 105.23 19.58 105.23 38.64 108.88 38.64 108.88 44.48 92.54 44.48 92.54 38.64 96.14 38.64 96.14 19.58 92.37 19.58 92.37 25.2 85.91 25.2 85.91 13.79 115.38 13.79"/><polygon class="cls-1" points="117.15 13.79 143.62 13.79 143.62 23.49 136.03 23.49 136.03 19.58 129 19.58 129 25.64 137.34 25.64 137.34 31.48 129 31.48 129 38.64 136.03 38.64 136.03 34.55 143.62 34.55 143.62 44.48 117.15 44.48 117.15 38.64 119.91 38.64 119.91 19.58 117.15 19.58 117.15 13.79"/><path class="cls-1" d="M145.83,13.79H160.1c10.19,0,12.17,4,12.17,9,0,3.43-2.73,5.84-6.37,6.37a6.65,6.65,0,0,1,5.75,6.23c0,1.89.26,3,1,3s1-.53,1-1.41V35.56h2.95V38c0,3.64-1.54,7-6.41,7-5.76,0-8.52-3-8.52-8.16,0-4-.48-5-4.39-5v6.8H160v5.8H145.83v-5.8h2.46V19.54h-2.46Zm11.51,5.7V27h2c2.55,0,4.22-1.23,4.22-3.56,0-2.59-1.45-3.91-4-3.91Z"/><path class="cls-1" d="M13.84,88.73V81.35h3.29v-25H13.84V49H35c9.43,0,13.91,3.52,13.91,9.72,0,4.77-1.3,7.1-5.56,8.8,4.09,1.14,7.5,4.15,7.5,9.66,0,8-4.49,11.53-15.46,11.53ZM28.89,56.52V65h3.46c3,0,3.87-1.65,3.87-4.37s-1.59-4.15-3.75-4.15ZM38,76.46c0-2.9-1.65-5-4.78-5H28.89v9.89h4.54A4.62,4.62,0,0,0,38,76.46"/><polygon class="cls-1" points="52.88 49.02 87.14 49.02 87.14 61.58 77.31 61.58 77.31 56.52 68.22 56.52 68.22 64.36 79.02 64.36 79.02 71.91 68.22 71.91 68.22 81.17 77.31 81.17 77.31 75.89 87.14 75.89 87.14 88.73 52.88 88.73 52.88 81.17 56.46 81.17 56.46 56.52 52.88 56.52 52.88 49.02"/><path class="cls-1" d="M134.48,88.73H111.7V81.29h5.39l-1.19-3.86H104.26l-1.2,3.86h4.43v7.44H89.43V81.29h3.86L101,56.35H98.63V49h21.82l10,32.27h4ZM106.36,70.61h7.44l-3.75-12.27Z"/><path class="cls-1" d="M136.78,49h18.46C168.42,49,171,54.25,171,60.72c0,4.44-3.53,7.56-8.24,8.24,3.92.57,7.44,4,7.44,8.07,0,2.44.34,3.86,1.36,3.86.86,0,1.31-.68,1.31-1.82V77.2h3.81v3.12c0,4.72-2,9.09-8.3,9.09-7.44,0-11-3.92-11-10.57,0-5.16-.62-6.41-5.68-6.41v8.8h3.47v7.5H136.78v-7.5H140V56.46h-3.18Zm14.88,7.39v9.65h2.56c3.29,0,5.45-1.59,5.45-4.6,0-3.35-1.87-5.05-5.17-5.05Z"/><path class="cls-1" d="M351.82,103.2H0V0H351.82ZM1,102.2H350.82V1H1Z"/></g></g></svg>